<mxfile host="app.diagrams.net" modified="2024-07-23T12:14:57.221Z" agent="Mozilla/5.0 (Windows NT 10.0; Win64; x64; rv:128.0) Gecko/20100101 Firefox/128.0" etag="J4xiKVg2ehRm6ifJmS8G" version="24.7.1" type="device">
  <diagram name="Page-1" id="6qJ1zG8coojLRrrpUM9j">
    <mxGraphModel dx="1168" dy="674" grid="0" gridSize="10" guides="1" tooltips="1" connect="1" arrows="1" fold="1" page="1" pageScale="1" pageWidth="1575" pageHeight="1181" math="0" shadow="0">
      <root>
        <mxCell id="0" />
        <mxCell id="1" parent="0" />
        <mxCell id="a40l-mlh2la468tvgxEu-1" value="" style="group;align=left;fontSize=8;fontColor=#000000;opacity=50;" vertex="1" connectable="0" parent="1">
          <mxGeometry x="246" y="131" width="362" height="360" as="geometry" />
        </mxCell>
        <mxCell id="a40l-mlh2la468tvgxEu-2" value="" style="rounded=0;whiteSpace=wrap;html=1;rotation=90;fontSize=8;opacity=50;fillColor=#f5f5f5;gradientColor=#b3b3b3;strokeColor=#666666;" vertex="1" parent="a40l-mlh2la468tvgxEu-1">
          <mxGeometry y="48" width="365" height="270" as="geometry" />
        </mxCell>
        <mxCell id="a40l-mlh2la468tvgxEu-3" value="" style="rounded=0;whiteSpace=wrap;html=1;fontSize=8;fontColor=#000000;opacity=50;" vertex="1" parent="a40l-mlh2la468tvgxEu-1">
          <mxGeometry x="47" width="160" height="40" as="geometry" />
        </mxCell>
        <mxCell id="a40l-mlh2la468tvgxEu-4" value="" style="rounded=0;whiteSpace=wrap;html=1;fontSize=8;fontColor=#000000;opacity=50;" vertex="1" parent="a40l-mlh2la468tvgxEu-1">
          <mxGeometry x="207" width="110" height="40" as="geometry" />
        </mxCell>
        <mxCell id="a40l-mlh2la468tvgxEu-5" value="" style="rounded=0;whiteSpace=wrap;html=1;fontSize=8;fontColor=#000000;opacity=50;" vertex="1" parent="a40l-mlh2la468tvgxEu-1">
          <mxGeometry x="47" y="40" width="270" height="40" as="geometry" />
        </mxCell>
        <mxCell id="a40l-mlh2la468tvgxEu-6" value="Tache_init" style="text;html=1;strokeColor=none;fillColor=none;align=center;verticalAlign=middle;whiteSpace=wrap;rounded=0;fontStyle=1;fontSize=8;fontColor=#000000;opacity=50;" vertex="1" parent="a40l-mlh2la468tvgxEu-1">
          <mxGeometry x="57" y="10" width="140" height="20" as="geometry" />
        </mxCell>
        <mxCell id="a40l-mlh2la468tvgxEu-7" value="&lt;div&gt;HighPriorityTask&lt;/div&gt;&amp;nbsp;: + 3" style="text;html=1;strokeColor=none;fillColor=none;align=center;verticalAlign=middle;whiteSpace=wrap;rounded=0;fontStyle=2;fontSize=8;fontColor=#000000;opacity=50;" vertex="1" parent="a40l-mlh2la468tvgxEu-1">
          <mxGeometry x="217" y="10" width="90" height="20" as="geometry" />
        </mxCell>
        <mxCell id="a40l-mlh2la468tvgxEu-8" value="Initialisation, Implémentation, Intégration et Calibration" style="text;html=1;strokeColor=none;fillColor=none;align=center;verticalAlign=middle;whiteSpace=wrap;rounded=0;fontSize=8;fontColor=#000000;opacity=50;" vertex="1" parent="a40l-mlh2la468tvgxEu-1">
          <mxGeometry x="57" y="50" width="250" height="20" as="geometry" />
        </mxCell>
        <mxCell id="a40l-mlh2la468tvgxEu-9" value="&lt;br&gt;→ Attendre la synchronisation du bouton poussoir.&lt;br&gt;→ Afficher la version du logiciel.&amp;nbsp; &lt;br&gt;→ Créer une structure pour gérer les ressources.&amp;nbsp; &lt;br&gt;&lt;br&gt;---&amp;gt; Intégration et Implémentation&amp;nbsp;&amp;nbsp; &lt;br&gt;&lt;span style=&quot;white-space: pre;&quot;&gt;&#x9;&lt;/span&gt;→ Initialiser la structure HAL (contenant des gestionnaires &lt;span style=&quot;white-space: pre;&quot;&gt;&#x9;&lt;/span&gt;&lt;span style=&quot;white-space: pre;&quot;&gt;&#x9;&lt;/span&gt;pour SPI, UART, etc.) . &lt;br&gt;&lt;span style=&quot;white-space: pre;&quot;&gt;&#x9;&lt;/span&gt;→ Enregistrer les fonctions dans HAL (seule la prototype est &lt;span style=&quot;white-space: pre;&quot;&gt;&#x9;&lt;/span&gt;&lt;span style=&quot;white-space: pre;&quot;&gt;&#x9;&lt;/span&gt;disponible pour le moment) . &lt;br&gt;&lt;br&gt;→ Confirmer que l&#39;enregistrement de cette couche a bien été &lt;span style=&quot;white-space: pre;&quot;&gt;&#x9;&lt;/span&gt;réalisé.&lt;br&gt;→ Initialiser la partie configuration de la structure des ressources.&amp;nbsp; &lt;br&gt;&lt;br&gt;→ Choisir et appliquer les paramètres configurés.&amp;nbsp; &lt;br&gt;→ Créer un handle pour le détecteur de distance.&amp;nbsp; &lt;br&gt;→ Afficher toutes les configurations établies . &lt;br&gt;→ Créer une instance du capteur (utilisée pour communiquer &lt;span style=&quot;white-space: pre;&quot;&gt;&#x9;&lt;/span&gt;avec le radar).&amp;nbsp; &lt;br&gt;→ Constituer une structure pour stocker les résultats de la &lt;span style=&quot;white-space: pre;&quot;&gt;&#x9;&lt;/span&gt;calibration.&amp;nbsp; &lt;br&gt;→ Procéder à la calibration du radar (activation/désactivation, &lt;span style=&quot;white-space: pre;&quot;&gt;&#x9;&lt;/span&gt;etc.).&amp;nbsp; &lt;br&gt;&lt;div&gt;→ Réaliser une calibration complète (envoyer des signaux au &lt;span style=&quot;white-space: pre;&quot;&gt;&#x9;&lt;/span&gt;radar jusqu&#39;à réception d&#39;une réponse via interruption) . &lt;/div&gt;&lt;div&gt;&lt;br&gt;→ Définir le drapeau &#39;monitor&#39; à &#39;prêt&#39; pour autoriser le début des mesures.&lt;br&gt;&lt;/div&gt;" style="text;html=1;strokeColor=none;fillColor=none;align=left;verticalAlign=top;whiteSpace=wrap;rounded=0;fontSize=8;fontColor=#000000;opacity=50;" vertex="1" parent="a40l-mlh2la468tvgxEu-1">
          <mxGeometry x="56" y="70" width="250" height="290" as="geometry" />
        </mxCell>
        <mxCell id="a40l-mlh2la468tvgxEu-10" value="" style="group" vertex="1" connectable="0" parent="1">
          <mxGeometry x="88" y="36" width="89" height="106" as="geometry" />
        </mxCell>
        <mxCell id="a40l-mlh2la468tvgxEu-11" value="" style="triangle;whiteSpace=wrap;html=1;align=left;rotation=-90;fillColor=#f5f5f5;gradientColor=#525252;strokeColor=#666666;" vertex="1" parent="a40l-mlh2la468tvgxEu-10">
          <mxGeometry width="89" height="106" as="geometry" />
        </mxCell>
        <mxCell id="a40l-mlh2la468tvgxEu-12" value="&lt;div&gt;ISR EXTI &lt;br&gt;&lt;/div&gt;&lt;div&gt;Blue button&lt;br&gt;&lt;/div&gt;" style="text;html=1;strokeColor=none;fillColor=none;align=center;verticalAlign=middle;whiteSpace=wrap;rounded=0;" vertex="1" parent="a40l-mlh2la468tvgxEu-10">
          <mxGeometry x="11.125" y="62.53999999999999" width="66.75" height="21.2" as="geometry" />
        </mxCell>
        <mxCell id="a40l-mlh2la468tvgxEu-13" value="" style="group;dashed=1;dashPattern=8 8;" vertex="1" connectable="0" parent="1">
          <mxGeometry x="118" y="176" width="116" height="58" as="geometry" />
        </mxCell>
        <mxCell id="a40l-mlh2la468tvgxEu-14" value="" style="ellipse;whiteSpace=wrap;html=1;align=left;dashed=1;dashPattern=12 12;" vertex="1" parent="a40l-mlh2la468tvgxEu-13">
          <mxGeometry width="116" height="57.999999999999986" as="geometry" />
        </mxCell>
        <mxCell id="a40l-mlh2la468tvgxEu-15" value="&lt;div&gt;Sémaphore &lt;br&gt;&lt;/div&gt;&lt;div&gt;Sync avec Tach_Init&lt;br&gt;&lt;/div&gt;" style="text;html=1;strokeColor=none;fillColor=none;align=center;verticalAlign=middle;whiteSpace=wrap;rounded=0;" vertex="1" parent="a40l-mlh2la468tvgxEu-13">
          <mxGeometry x="8.923076923076923" y="19.333333333333332" width="98.15384615384616" height="19.333333333333332" as="geometry" />
        </mxCell>
        <mxCell id="a40l-mlh2la468tvgxEu-16" value="" style="group;dashed=1;dashPattern=8 8;" vertex="1" connectable="0" parent="1">
          <mxGeometry x="642" y="483" width="141" height="77" as="geometry" />
        </mxCell>
        <mxCell id="a40l-mlh2la468tvgxEu-17" value="" style="ellipse;whiteSpace=wrap;html=1;align=left;dashed=1;dashPattern=12 12;" vertex="1" parent="a40l-mlh2la468tvgxEu-16">
          <mxGeometry width="141" height="77" as="geometry" />
        </mxCell>
        <mxCell id="a40l-mlh2la468tvgxEu-18" value="&amp;nbsp; Sémaphore pour signaler à la tâche de mesure de commencer." style="text;html=1;strokeColor=none;fillColor=none;align=center;verticalAlign=middle;whiteSpace=wrap;rounded=0;" vertex="1" parent="a40l-mlh2la468tvgxEu-16">
          <mxGeometry x="10.846153846153845" y="22.458333333333336" width="119.30769230769229" height="22.458333333333336" as="geometry" />
        </mxCell>
        <mxCell id="a40l-mlh2la468tvgxEu-19" value="" style="group" vertex="1" connectable="0" parent="1">
          <mxGeometry x="1063" y="3" width="100" height="120" as="geometry" />
        </mxCell>
        <mxCell id="a40l-mlh2la468tvgxEu-20" value="" style="triangle;whiteSpace=wrap;html=1;align=left;rotation=-90;fillColor=#f5f5f5;gradientColor=#4D4D4D;strokeColor=#666666;" vertex="1" parent="a40l-mlh2la468tvgxEu-19">
          <mxGeometry width="100" height="120" as="geometry" />
        </mxCell>
        <mxCell id="a40l-mlh2la468tvgxEu-21" value="&lt;div&gt;ISR &lt;br&gt;&lt;/div&gt;&lt;div&gt;Timer 10 ms &lt;br&gt;&lt;/div&gt;" style="text;html=1;strokeColor=none;fillColor=none;align=center;verticalAlign=middle;whiteSpace=wrap;rounded=0;" vertex="1" parent="a40l-mlh2la468tvgxEu-19">
          <mxGeometry x="12.5" y="70.8" width="75" height="24" as="geometry" />
        </mxCell>
        <mxCell id="a40l-mlh2la468tvgxEu-22" value="" style="group;dashed=1;dashPattern=8 8;" vertex="1" connectable="0" parent="1">
          <mxGeometry x="1145" y="150" width="90" height="39" as="geometry" />
        </mxCell>
        <mxCell id="a40l-mlh2la468tvgxEu-23" value="" style="ellipse;whiteSpace=wrap;html=1;align=left;dashed=1;dashPattern=12 12;" vertex="1" parent="a40l-mlh2la468tvgxEu-22">
          <mxGeometry width="90" height="39" as="geometry" />
        </mxCell>
        <mxCell id="a40l-mlh2la468tvgxEu-24" value="&lt;div&gt;Sémaphore &lt;br&gt;&lt;/div&gt;&lt;div&gt;TimerSync &lt;br&gt;&lt;/div&gt;" style="text;html=1;strokeColor=none;fillColor=none;align=center;verticalAlign=middle;whiteSpace=wrap;rounded=0;" vertex="1" parent="a40l-mlh2la468tvgxEu-22">
          <mxGeometry x="6.923076923076923" y="12.999999999999998" width="76.15384615384617" height="12.999999999999998" as="geometry" />
        </mxCell>
        <mxCell id="a40l-mlh2la468tvgxEu-25" value="" style="rounded=0;whiteSpace=wrap;html=1;rotation=90;fontSize=8;opacity=50;fillColor=#f5f5f5;gradientColor=#b3b3b3;strokeColor=#666666;" vertex="1" parent="1">
          <mxGeometry x="831.25" y="184.25" width="252.5" height="270" as="geometry" />
        </mxCell>
        <mxCell id="a40l-mlh2la468tvgxEu-26" value="" style="rounded=0;whiteSpace=wrap;html=1;fontSize=8;fontColor=#000000;opacity=50;" vertex="1" parent="1">
          <mxGeometry x="822" y="192.5" width="160" height="40" as="geometry" />
        </mxCell>
        <mxCell id="a40l-mlh2la468tvgxEu-27" value="" style="rounded=0;whiteSpace=wrap;html=1;fontSize=8;fontColor=#000000;opacity=50;" vertex="1" parent="1">
          <mxGeometry x="982" y="192.5" width="110" height="40" as="geometry" />
        </mxCell>
        <mxCell id="a40l-mlh2la468tvgxEu-28" value="Récupérer les données de mesure." style="rounded=0;whiteSpace=wrap;html=1;fontSize=8;fontColor=#000000;opacity=50;" vertex="1" parent="1">
          <mxGeometry x="822" y="232.5" width="270" height="40" as="geometry" />
        </mxCell>
        <mxCell id="a40l-mlh2la468tvgxEu-29" value="Tache_mesure" style="text;html=1;strokeColor=none;fillColor=none;align=center;verticalAlign=middle;whiteSpace=wrap;rounded=0;fontStyle=1;fontSize=8;fontColor=#000000;opacity=50;" vertex="1" parent="1">
          <mxGeometry x="832" y="202.5" width="140" height="20" as="geometry" />
        </mxCell>
        <mxCell id="a40l-mlh2la468tvgxEu-30" value="&lt;div&gt;HighPriorityTask&lt;/div&gt;&amp;nbsp;: +2" style="text;html=1;strokeColor=none;fillColor=none;align=center;verticalAlign=middle;whiteSpace=wrap;rounded=0;fontStyle=2;fontSize=8;fontColor=#000000;opacity=50;" vertex="1" parent="1">
          <mxGeometry x="992" y="202.5" width="90" height="20" as="geometry" />
        </mxCell>
        <mxCell id="a40l-mlh2la468tvgxEu-31" style="edgeStyle=orthogonalEdgeStyle;rounded=0;orthogonalLoop=1;jettySize=auto;html=1;exitX=1.007;exitY=0.111;exitDx=0;exitDy=0;entryX=0.5;entryY=1;entryDx=0;entryDy=0;exitPerimeter=0;curved=1;endArrow=blockThin;endFill=1;dashed=1;" edge="1" parent="1" source="a40l-mlh2la468tvgxEu-33" target="a40l-mlh2la468tvgxEu-23">
          <mxGeometry relative="1" as="geometry">
            <Array as="points">
              <mxPoint x="1083" y="284" />
              <mxPoint x="1214" y="284" />
              <mxPoint x="1214" y="229" />
              <mxPoint x="1190" y="229" />
            </Array>
          </mxGeometry>
        </mxCell>
        <mxCell id="a40l-mlh2la468tvgxEu-32" style="edgeStyle=orthogonalEdgeStyle;rounded=0;orthogonalLoop=1;jettySize=auto;html=1;exitX=0.073;exitY=1.007;exitDx=0;exitDy=0;entryX=0.5;entryY=1;entryDx=0;entryDy=0;curved=1;exitPerimeter=0;fillColor=#76608a;strokeColor=#432D57;" edge="1" parent="1" source="a40l-mlh2la468tvgxEu-33" target="a40l-mlh2la468tvgxEu-49">
          <mxGeometry relative="1" as="geometry">
            <Array as="points">
              <mxPoint x="849" y="422" />
              <mxPoint x="840" y="422" />
              <mxPoint x="840" y="627" />
              <mxPoint x="146" y="627" />
            </Array>
          </mxGeometry>
        </mxCell>
        <mxCell id="a40l-mlh2la468tvgxEu-33" value="→ Attente de synchronisation du Timer et accord de la tâche Init &lt;span style=&quot;white-space: pre;&quot;&gt;&#x9;&lt;/span&gt;(10 ms, modifiable selon les besoins de l&#39;application).&lt;br&gt;&lt;br&gt;→ Créer la structure qui va contenir les résultats.&lt;br&gt;&lt;br&gt;→ Récupérer les résultats.&lt;br&gt;&lt;br&gt;→ En cas d&#39;échec, effectuer un nettoyage et envoyer un message &lt;span style=&quot;white-space: pre;&quot;&gt;&#x9;&lt;/span&gt;à l&#39;utilisateur.&lt;br&gt;&lt;br&gt;→ Si le radar nécessite une calibration, en effectuer une (le flag &lt;span style=&quot;white-space: pre;&quot;&gt;&#x9;&lt;/span&gt;de calibration nécessaire est automatiquement mis à jour).&lt;br&gt;&lt;br&gt;&lt;div&gt;→ Afficher les résultats (optionnel).&lt;/div&gt;&lt;div&gt;&lt;br&gt;&lt;/div&gt;&lt;div&gt;→ Si le flag `flag_clean_up` est à 1, effectuer le nettoyage.&lt;br&gt;&lt;/div&gt;" style="text;html=1;strokeColor=none;fillColor=none;align=left;verticalAlign=top;whiteSpace=wrap;rounded=0;fontSize=8;fontColor=#000000;opacity=50;" vertex="1" parent="1">
          <mxGeometry x="831" y="272.5" width="250" height="150" as="geometry" />
        </mxCell>
        <mxCell id="a40l-mlh2la468tvgxEu-34" value="" style="group;align=left;fontSize=8;fontColor=#000000;opacity=50;" vertex="1" connectable="0" parent="1">
          <mxGeometry x="831" y="519" width="362" height="350" as="geometry" />
        </mxCell>
        <mxCell id="a40l-mlh2la468tvgxEu-35" value="" style="rounded=0;whiteSpace=wrap;html=1;rotation=90;fontSize=8;opacity=50;fillColor=#f5f5f5;gradientColor=#b3b3b3;strokeColor=#666666;" vertex="1" parent="a40l-mlh2la468tvgxEu-34">
          <mxGeometry x="130.07" y="-82.06" width="104.87" height="270" as="geometry" />
        </mxCell>
        <mxCell id="a40l-mlh2la468tvgxEu-36" value="" style="rounded=0;whiteSpace=wrap;html=1;fontSize=8;fontColor=#000000;opacity=50;" vertex="1" parent="a40l-mlh2la468tvgxEu-34">
          <mxGeometry x="47" width="160" height="40" as="geometry" />
        </mxCell>
        <mxCell id="a40l-mlh2la468tvgxEu-37" value="" style="rounded=0;whiteSpace=wrap;html=1;fontSize=8;fontColor=#000000;opacity=50;" vertex="1" parent="a40l-mlh2la468tvgxEu-34">
          <mxGeometry x="207" width="110" height="40" as="geometry" />
        </mxCell>
        <mxCell id="a40l-mlh2la468tvgxEu-38" value="IDLE" style="text;html=1;strokeColor=none;fillColor=none;align=center;verticalAlign=middle;whiteSpace=wrap;rounded=0;fontStyle=1;fontSize=8;fontColor=#000000;opacity=50;" vertex="1" parent="a40l-mlh2la468tvgxEu-34">
          <mxGeometry x="57" y="10" width="140" height="20" as="geometry" />
        </mxCell>
        <mxCell id="a40l-mlh2la468tvgxEu-39" value="Lowest Priority: 0" style="text;html=1;strokeColor=none;fillColor=none;align=center;verticalAlign=middle;whiteSpace=wrap;rounded=0;fontStyle=2;fontSize=8;fontColor=#000000;opacity=50;" vertex="1" parent="a40l-mlh2la468tvgxEu-34">
          <mxGeometry x="217" y="10" width="90" height="20" as="geometry" />
        </mxCell>
        <mxCell id="a40l-mlh2la468tvgxEu-40" value="Principalement dans ce cas, économiser l&#39;énergie. Voir même si on peut éteindre le radar sans avoir besoin de refaire la calibration." style="text;html=1;strokeColor=none;fillColor=none;align=left;verticalAlign=top;whiteSpace=wrap;rounded=0;fontSize=8;fontColor=#000000;opacity=50;" vertex="1" parent="a40l-mlh2la468tvgxEu-34">
          <mxGeometry x="57" y="49" width="250" height="144" as="geometry" />
        </mxCell>
        <mxCell id="a40l-mlh2la468tvgxEu-41" value="" style="group" vertex="1" connectable="0" parent="1">
          <mxGeometry x="671" y="98" width="72" height="78" as="geometry" />
        </mxCell>
        <mxCell id="a40l-mlh2la468tvgxEu-42" value="" style="ellipse;whiteSpace=wrap;html=1;aspect=fixed;align=left;" vertex="1" parent="a40l-mlh2la468tvgxEu-41">
          <mxGeometry x="9.9" y="10.725" width="62.1" height="62.1" as="geometry" />
        </mxCell>
        <mxCell id="a40l-mlh2la468tvgxEu-43" value="SPI&amp;nbsp; RX/TX " style="text;html=1;strokeColor=none;fillColor=none;align=center;verticalAlign=middle;whiteSpace=wrap;rounded=0;" vertex="1" parent="a40l-mlh2la468tvgxEu-41">
          <mxGeometry x="13.950000000000001" y="24.8625" width="54" height="39" as="geometry" />
        </mxCell>
        <mxCell id="a40l-mlh2la468tvgxEu-44" value="" style="edgeStyle=orthogonalEdgeStyle;rounded=0;orthogonalLoop=1;jettySize=auto;html=1;entryX=0.5;entryY=0;entryDx=0;entryDy=0;dashed=1;curved=1;" edge="1" parent="1" source="a40l-mlh2la468tvgxEu-20" target="a40l-mlh2la468tvgxEu-23">
          <mxGeometry relative="1" as="geometry" />
        </mxCell>
        <mxCell id="a40l-mlh2la468tvgxEu-45" value="" style="edgeStyle=orthogonalEdgeStyle;rounded=0;orthogonalLoop=1;jettySize=auto;html=1;curved=1;dashed=1;" edge="1" parent="1" source="a40l-mlh2la468tvgxEu-11" target="a40l-mlh2la468tvgxEu-14">
          <mxGeometry relative="1" as="geometry">
            <Array as="points">
              <mxPoint x="132" y="164" />
              <mxPoint x="182" y="164" />
            </Array>
          </mxGeometry>
        </mxCell>
        <mxCell id="a40l-mlh2la468tvgxEu-46" style="edgeStyle=orthogonalEdgeStyle;rounded=0;orthogonalLoop=1;jettySize=auto;html=1;exitX=0.25;exitY=1;exitDx=0;exitDy=0;entryX=0.993;entryY=0.393;entryDx=0;entryDy=0;entryPerimeter=0;curved=1;dashed=1;" edge="1" parent="1" source="a40l-mlh2la468tvgxEu-2" target="a40l-mlh2la468tvgxEu-14">
          <mxGeometry relative="1" as="geometry" />
        </mxCell>
        <mxCell id="a40l-mlh2la468tvgxEu-47" value="" style="group" vertex="1" connectable="0" parent="1">
          <mxGeometry x="99" y="448" width="95" height="41" as="geometry" />
        </mxCell>
        <mxCell id="a40l-mlh2la468tvgxEu-48" value="" style="group" vertex="1" connectable="0" parent="a40l-mlh2la468tvgxEu-47">
          <mxGeometry width="95" height="41" as="geometry" />
        </mxCell>
        <mxCell id="a40l-mlh2la468tvgxEu-49" value="" style="ellipse;whiteSpace=wrap;html=1;align=left;" vertex="1" parent="a40l-mlh2la468tvgxEu-48">
          <mxGeometry width="95" height="41" as="geometry" />
        </mxCell>
        <mxCell id="a40l-mlh2la468tvgxEu-50" value="Mutex Uart peripherals " style="text;html=1;strokeColor=none;fillColor=none;align=center;verticalAlign=middle;whiteSpace=wrap;rounded=0;" vertex="1" parent="a40l-mlh2la468tvgxEu-48">
          <mxGeometry x="7.307692307692308" y="13.66666666666667" width="80.38461538461539" height="13.66666666666667" as="geometry" />
        </mxCell>
        <mxCell id="a40l-mlh2la468tvgxEu-51" value="&lt;font style=&quot;font-size: 8px&quot; color=&quot;#cccccc&quot;&gt;&lt;i&gt;Mutex&lt;/i&gt;&lt;/font&gt;" style="text;html=1;strokeColor=none;fillColor=none;align=center;verticalAlign=middle;whiteSpace=wrap;rounded=0;dropTarget=0;connectable=0;" vertex="1" parent="a40l-mlh2la468tvgxEu-48">
          <mxGeometry x="25.57692307692312" y="-3.4166666666666674" width="43.846153846153854" height="13.66666666666667" as="geometry" />
        </mxCell>
        <mxCell id="a40l-mlh2la468tvgxEu-52" value="" style="group" vertex="1" connectable="0" parent="a40l-mlh2la468tvgxEu-48">
          <mxGeometry x="19.5" y="-41.75" width="56" height="52" as="geometry" />
        </mxCell>
        <mxCell id="a40l-mlh2la468tvgxEu-53" value="" style="ellipse;whiteSpace=wrap;html=1;aspect=fixed;align=left;" vertex="1" parent="a40l-mlh2la468tvgxEu-52">
          <mxGeometry width="52" height="52" as="geometry" />
        </mxCell>
        <mxCell id="a40l-mlh2la468tvgxEu-54" value="&lt;div&gt;UART&lt;/div&gt;&lt;div&gt;TX&lt;br&gt;&lt;/div&gt;" style="text;html=1;strokeColor=none;fillColor=none;align=center;verticalAlign=middle;whiteSpace=wrap;rounded=0;" vertex="1" parent="a40l-mlh2la468tvgxEu-52">
          <mxGeometry x="7" y="13" width="42" height="26" as="geometry" />
        </mxCell>
        <mxCell id="a40l-mlh2la468tvgxEu-55" value="" style="group" vertex="1" connectable="0" parent="1">
          <mxGeometry x="665" y="160" width="95" height="41" as="geometry" />
        </mxCell>
        <mxCell id="a40l-mlh2la468tvgxEu-56" value="" style="group" vertex="1" connectable="0" parent="a40l-mlh2la468tvgxEu-55">
          <mxGeometry width="95" height="41" as="geometry" />
        </mxCell>
        <mxCell id="a40l-mlh2la468tvgxEu-57" value="" style="ellipse;whiteSpace=wrap;html=1;align=left;" vertex="1" parent="a40l-mlh2la468tvgxEu-56">
          <mxGeometry width="95" height="41" as="geometry" />
        </mxCell>
        <mxCell id="a40l-mlh2la468tvgxEu-58" value="&lt;div&gt;Mutex SPI&lt;/div&gt;&lt;div&gt;&amp;nbsp;peripherals &lt;/div&gt;" style="text;html=1;strokeColor=none;fillColor=none;align=center;verticalAlign=middle;whiteSpace=wrap;rounded=0;" vertex="1" parent="a40l-mlh2la468tvgxEu-56">
          <mxGeometry x="7.307692307692308" y="13.66666666666667" width="80.38461538461539" height="13.66666666666667" as="geometry" />
        </mxCell>
        <mxCell id="a40l-mlh2la468tvgxEu-59" value="&lt;font style=&quot;font-size: 8px&quot; color=&quot;#cccccc&quot;&gt;&lt;i&gt;Mutex&lt;/i&gt;&lt;/font&gt;" style="text;html=1;strokeColor=none;fillColor=none;align=center;verticalAlign=middle;whiteSpace=wrap;rounded=0;dropTarget=0;connectable=0;" vertex="1" parent="a40l-mlh2la468tvgxEu-56">
          <mxGeometry x="25.57692307692312" y="-3.4166666666666674" width="43.846153846153854" height="13.66666666666667" as="geometry" />
        </mxCell>
        <mxCell id="a40l-mlh2la468tvgxEu-60" style="edgeStyle=orthogonalEdgeStyle;rounded=0;orthogonalLoop=1;jettySize=auto;html=1;entryX=0;entryY=0.5;entryDx=0;entryDy=0;curved=1;dashed=1;" edge="1" parent="1" target="a40l-mlh2la468tvgxEu-17">
          <mxGeometry relative="1" as="geometry">
            <mxPoint x="550" y="484" as="sourcePoint" />
          </mxGeometry>
        </mxCell>
        <mxCell id="a40l-mlh2la468tvgxEu-61" style="edgeStyle=orthogonalEdgeStyle;rounded=0;orthogonalLoop=1;jettySize=auto;html=1;entryX=0.999;entryY=0.569;entryDx=0;entryDy=0;entryPerimeter=0;curved=1;dashed=1;" edge="1" parent="1" target="a40l-mlh2la468tvgxEu-17">
          <mxGeometry relative="1" as="geometry">
            <mxPoint x="838" y="284" as="sourcePoint" />
            <Array as="points">
              <mxPoint x="831" y="295" />
              <mxPoint x="807" y="295" />
              <mxPoint x="807" y="527" />
            </Array>
          </mxGeometry>
        </mxCell>
        <mxCell id="a40l-mlh2la468tvgxEu-62" style="edgeStyle=orthogonalEdgeStyle;rounded=0;orthogonalLoop=1;jettySize=auto;html=1;exitX=1;exitY=0.25;exitDx=0;exitDy=0;entryX=0;entryY=0.5;entryDx=0;entryDy=0;curved=1;" edge="1" parent="1" source="a40l-mlh2la468tvgxEu-9" target="a40l-mlh2la468tvgxEu-57">
          <mxGeometry relative="1" as="geometry" />
        </mxCell>
        <mxCell id="a40l-mlh2la468tvgxEu-63" style="edgeStyle=orthogonalEdgeStyle;rounded=0;orthogonalLoop=1;jettySize=auto;html=1;exitX=0.01;exitY=0.114;exitDx=0;exitDy=0;entryX=1;entryY=0;entryDx=0;entryDy=0;exitPerimeter=0;curved=1;" edge="1" parent="1" source="a40l-mlh2la468tvgxEu-9" target="a40l-mlh2la468tvgxEu-50">
          <mxGeometry relative="1" as="geometry">
            <Array as="points">
              <mxPoint x="214" y="234" />
              <mxPoint x="214" y="462" />
            </Array>
          </mxGeometry>
        </mxCell>
        <mxCell id="a40l-mlh2la468tvgxEu-64" style="edgeStyle=orthogonalEdgeStyle;rounded=0;orthogonalLoop=1;jettySize=auto;html=1;exitX=0.01;exitY=0.602;exitDx=0;exitDy=0;entryX=1;entryY=1;entryDx=0;entryDy=0;curved=1;exitPerimeter=0;" edge="1" parent="1" source="a40l-mlh2la468tvgxEu-9" target="a40l-mlh2la468tvgxEu-50">
          <mxGeometry relative="1" as="geometry">
            <Array as="points">
              <mxPoint x="302" y="376" />
              <mxPoint x="302" y="384" />
              <mxPoint x="244" y="384" />
              <mxPoint x="244" y="490" />
              <mxPoint x="187" y="490" />
            </Array>
          </mxGeometry>
        </mxCell>
        <mxCell id="a40l-mlh2la468tvgxEu-65" style="edgeStyle=orthogonalEdgeStyle;rounded=0;orthogonalLoop=1;jettySize=auto;html=1;exitX=0.006;exitY=0.405;exitDx=0;exitDy=0;entryX=0.794;entryY=0.907;entryDx=0;entryDy=0;entryPerimeter=0;exitPerimeter=0;curved=1;" edge="1" parent="1" source="a40l-mlh2la468tvgxEu-33" target="a40l-mlh2la468tvgxEu-57">
          <mxGeometry relative="1" as="geometry">
            <Array as="points">
              <mxPoint x="769" y="333" />
              <mxPoint x="769" y="221" />
              <mxPoint x="740" y="221" />
            </Array>
          </mxGeometry>
        </mxCell>
        <mxCell id="a40l-mlh2la468tvgxEu-66" style="edgeStyle=orthogonalEdgeStyle;rounded=0;orthogonalLoop=1;jettySize=auto;html=1;exitX=1;exitY=0.75;exitDx=0;exitDy=0;entryX=0.5;entryY=1;entryDx=0;entryDy=0;curved=1;" edge="1" parent="1" source="a40l-mlh2la468tvgxEu-9" target="a40l-mlh2la468tvgxEu-57">
          <mxGeometry relative="1" as="geometry">
            <Array as="points">
              <mxPoint x="588" y="419" />
              <mxPoint x="588" y="370" />
              <mxPoint x="713" y="370" />
            </Array>
          </mxGeometry>
        </mxCell>
      </root>
    </mxGraphModel>
  </diagram>
</mxfile>
